<svg width="181" height="21" viewBox="0 0 181 21" fill="none" xmlns="http://www.w3.org/2000/svg">
<path d="M15.238 20H11.702L9.336 13.838C9.128 13.266 8.80733 12.8673 8.374 12.642C7.94067 12.4167 7.37733 12.304 6.684 12.304H3.33V20H0.00200018V1.488H7.932C10.0293 1.488 11.624 1.94733 12.716 2.866C13.808 3.78467 14.354 5.102 14.354 6.818C14.354 8.04867 14.0247 9.09733 13.366 9.964C12.7247 10.8133 11.806 11.42 10.61 11.784C11.702 12.0093 12.4907 12.772 12.976 14.072L15.238 20ZM7.464 9.704C8.72933 9.704 9.66533 9.47 10.272 9.002C10.8787 8.534 11.182 7.82333 11.182 6.87C11.182 5.934 10.8787 5.24067 10.272 4.79C9.68267 4.322 8.74667 4.088 7.464 4.088H3.278V9.704H7.464ZM29.5159 13.604H20.4679C20.5372 15.008 20.8839 16.048 21.5079 16.724C22.1492 17.3827 23.0939 17.712 24.3419 17.712C25.7805 17.712 27.1152 17.244 28.3459 16.308L29.2819 18.544C28.6579 19.0467 27.8865 19.454 26.9679 19.766C26.0665 20.0607 25.1479 20.208 24.2119 20.208C22.0625 20.208 20.3725 19.6013 19.1419 18.388C17.9112 17.1747 17.2959 15.5107 17.2959 13.396C17.2959 12.0613 17.5645 10.874 18.1019 9.834C18.6392 8.794 19.3932 7.988 20.3639 7.416C21.3345 6.82667 22.4352 6.532 23.6659 6.532C25.4685 6.532 26.8899 7.12133 27.9299 8.3C28.9872 9.46133 29.5159 11.0647 29.5159 13.11V13.604ZM23.7439 8.872C22.8772 8.872 22.1665 9.132 21.6119 9.652C21.0745 10.1547 20.7279 10.8913 20.5719 11.862H26.6819C26.5779 10.874 26.2745 10.1287 25.7719 9.626C25.2865 9.12333 24.6105 8.872 23.7439 8.872ZM38.222 20.208C36.8527 20.208 35.6653 19.9307 34.66 19.376C33.6547 18.8213 32.8833 18.0413 32.346 17.036C31.8087 16.0133 31.54 14.8173 31.54 13.448C31.54 12.0787 31.8173 10.874 32.372 9.834C32.944 8.794 33.7413 7.988 34.764 7.416C35.804 6.82667 37 6.532 38.352 6.532C39.288 6.532 40.1893 6.67933 41.056 6.974C41.94 7.26867 42.642 7.676 43.162 8.196L42.252 10.484C41.6973 10.0333 41.108 9.69533 40.484 9.47C39.86 9.22733 39.2447 9.106 38.638 9.106C37.4593 9.106 36.5407 9.47867 35.882 10.224C35.2233 10.952 34.894 12.0093 34.894 13.396C34.894 14.7827 35.2147 15.84 35.856 16.568C36.5147 17.296 37.442 17.66 38.638 17.66C39.2447 17.66 39.86 17.5387 40.484 17.296C41.108 17.0533 41.6973 16.7067 42.252 16.256L43.162 18.544C42.6073 19.064 41.888 19.4713 41.004 19.766C40.12 20.0607 39.1927 20.208 38.222 20.208ZM51.2982 20.208C49.9635 20.208 48.7848 19.9307 47.7622 19.376C46.7568 18.8213 45.9768 18.0327 45.4222 17.01C44.8848 15.97 44.6162 14.7567 44.6162 13.37C44.6162 11.9833 44.8848 10.7787 45.4222 9.756C45.9768 8.716 46.7568 7.91867 47.7622 7.364C48.7848 6.80933 49.9635 6.532 51.2982 6.532C52.6155 6.532 53.7768 6.80933 54.7822 7.364C55.7875 7.91867 56.5588 8.716 57.0962 9.756C57.6508 10.7787 57.9282 11.9833 57.9282 13.37C57.9282 14.7567 57.6508 15.97 57.0962 17.01C56.5588 18.0327 55.7875 18.8213 54.7822 19.376C53.7768 19.9307 52.6155 20.208 51.2982 20.208ZM51.2722 17.66C52.3815 17.66 53.2222 17.3047 53.7942 16.594C54.3835 15.866 54.6782 14.7913 54.6782 13.37C54.6782 11.966 54.3835 10.9 53.7942 10.172C53.2048 9.42667 52.3728 9.054 51.2982 9.054C50.2062 9.054 49.3655 9.42667 48.7762 10.172C48.1868 10.9 47.8922 11.966 47.8922 13.37C47.8922 14.7913 48.1782 15.866 48.7502 16.594C49.3395 17.3047 50.1802 17.66 51.2722 17.66ZM76.2269 6.532C77.7176 6.532 78.8269 6.98267 79.5549 7.884C80.2829 8.768 80.6469 10.12 80.6469 11.94V20H77.3969V12.044C77.3969 11.004 77.2236 10.2587 76.8769 9.808C76.5476 9.34 75.9929 9.106 75.2129 9.106C74.3116 9.106 73.6009 9.42667 73.0809 10.068C72.5782 10.692 72.3269 11.5587 72.3269 12.668V20H69.0769V12.044C69.0769 11.0213 68.8949 10.276 68.5309 9.808C68.1842 9.34 67.6296 9.106 66.8669 9.106C65.9656 9.106 65.2549 9.42667 64.7349 10.068C64.2149 10.692 63.9549 11.5587 63.9549 12.668V20H60.7309V10.588C60.7309 9.20133 60.6616 7.962 60.5229 6.87H63.5649L63.7989 8.95C64.1802 8.17 64.7262 7.572 65.4369 7.156C66.1649 6.74 66.9969 6.532 67.9329 6.532C69.9436 6.532 71.2522 7.364 71.8589 9.028C72.2749 8.248 72.8642 7.64133 73.6269 7.208C74.4069 6.75733 75.2736 6.532 76.2269 6.532ZM99.6117 6.532C101.102 6.532 102.212 6.98267 102.94 7.884C103.668 8.768 104.032 10.12 104.032 11.94V20H100.782V12.044C100.782 11.004 100.608 10.2587 100.262 9.808C99.9323 9.34 99.3777 9.106 98.5977 9.106C97.6963 9.106 96.9857 9.42667 96.4657 10.068C95.963 10.692 95.7117 11.5587 95.7117 12.668V20H92.4617V12.044C92.4617 11.0213 92.2797 10.276 91.9157 9.808C91.569 9.34 91.0143 9.106 90.2517 9.106C89.3503 9.106 88.6397 9.42667 88.1197 10.068C87.5997 10.692 87.3397 11.5587 87.3397 12.668V20H84.1157V10.588C84.1157 9.20133 84.0463 7.962 83.9077 6.87H86.9497L87.1837 8.95C87.565 8.17 88.111 7.572 88.8217 7.156C89.5497 6.74 90.3817 6.532 91.3177 6.532C93.3283 6.532 94.637 7.364 95.2437 9.028C95.6597 8.248 96.249 7.64133 97.0117 7.208C97.7917 6.75733 98.6583 6.532 99.6117 6.532ZM118.992 13.604H109.944C110.014 15.008 110.36 16.048 110.984 16.724C111.626 17.3827 112.57 17.712 113.818 17.712C115.257 17.712 116.592 17.244 117.822 16.308L118.758 18.544C118.134 19.0467 117.363 19.454 116.444 19.766C115.543 20.0607 114.624 20.208 113.688 20.208C111.539 20.208 109.849 19.6013 108.618 18.388C107.388 17.1747 106.772 15.5107 106.772 13.396C106.772 12.0613 107.041 10.874 107.578 9.834C108.116 8.794 108.87 7.988 109.84 7.416C110.811 6.82667 111.912 6.532 113.142 6.532C114.945 6.532 116.366 7.12133 117.406 8.3C118.464 9.46133 118.992 11.0647 118.992 13.11V13.604ZM113.22 8.872C112.354 8.872 111.643 9.132 111.088 9.652C110.551 10.1547 110.204 10.8913 110.048 11.862H116.158C116.054 10.874 115.751 10.1287 115.248 9.626C114.763 9.12333 114.087 8.872 113.22 8.872ZM129.259 6.532C132.396 6.532 133.965 8.33467 133.965 11.94V20H130.715V12.096C130.715 11.056 130.515 10.302 130.117 9.834C129.718 9.34867 129.103 9.106 128.271 9.106C127.283 9.106 126.485 9.42667 125.879 10.068C125.272 10.692 124.969 11.524 124.969 12.564V20H121.745V10.588C121.745 9.20133 121.675 7.962 121.537 6.87H124.579L124.813 9.028C125.263 8.23067 125.87 7.61533 126.633 7.182C127.413 6.74867 128.288 6.532 129.259 6.532ZM149.969 0.863998V20H146.771V17.894C146.372 18.622 145.8 19.194 145.055 19.61C144.309 20.0087 143.46 20.208 142.507 20.208C141.38 20.208 140.375 19.922 139.491 19.35C138.607 18.778 137.913 17.972 137.411 16.932C136.925 15.8747 136.683 14.67 136.683 13.318C136.683 11.966 136.925 10.7787 137.411 9.756C137.896 8.73333 138.581 7.94467 139.465 7.39C140.349 6.818 141.363 6.532 142.507 6.532C143.443 6.532 144.275 6.73133 145.003 7.13C145.748 7.51133 146.32 8.05733 146.719 8.768V0.863998H149.969ZM143.365 17.66C144.439 17.66 145.271 17.2873 145.861 16.542C146.467 15.7967 146.771 14.7393 146.771 13.37C146.771 12.0007 146.476 10.9433 145.887 10.198C145.297 9.45267 144.465 9.08 143.391 9.08C142.299 9.08 141.449 9.45267 140.843 10.198C140.253 10.926 139.959 11.966 139.959 13.318C139.959 14.6873 140.253 15.7533 140.843 16.516C141.449 17.2787 142.29 17.66 143.365 17.66ZM165 13.604H155.952C156.022 15.008 156.368 16.048 156.992 16.724C157.634 17.3827 158.578 17.712 159.826 17.712C161.265 17.712 162.6 17.244 163.83 16.308L164.766 18.544C164.142 19.0467 163.371 19.454 162.452 19.766C161.551 20.0607 160.632 20.208 159.696 20.208C157.547 20.208 155.857 19.6013 154.626 18.388C153.396 17.1747 152.78 15.5107 152.78 13.396C152.78 12.0613 153.049 10.874 153.586 9.834C154.124 8.794 154.878 7.988 155.848 7.416C156.819 6.82667 157.92 6.532 159.15 6.532C160.953 6.532 162.374 7.12133 163.414 8.3C164.472 9.46133 165 11.0647 165 13.11V13.604ZM159.228 8.872C158.362 8.872 157.651 9.132 157.096 9.652C156.559 10.1547 156.212 10.8913 156.056 11.862H162.166C162.062 10.874 161.759 10.1287 161.256 9.626C160.771 9.12333 160.095 8.872 159.228 8.872ZM180.31 0.863998V20H177.112V17.894C176.714 18.622 176.142 19.194 175.396 19.61C174.651 20.0087 173.802 20.208 172.848 20.208C171.722 20.208 170.716 19.922 169.832 19.35C168.948 18.778 168.255 17.972 167.752 16.932C167.267 15.8747 167.024 14.67 167.024 13.318C167.024 11.966 167.267 10.7787 167.752 9.756C168.238 8.73333 168.922 7.94467 169.806 7.39C170.69 6.818 171.704 6.532 172.848 6.532C173.784 6.532 174.616 6.73133 175.344 7.13C176.09 7.51133 176.662 8.05733 177.06 8.768V0.863998H180.31ZM173.706 17.66C174.781 17.66 175.613 17.2873 176.202 16.542C176.809 15.7967 177.112 14.7393 177.112 13.37C177.112 12.0007 176.818 10.9433 176.228 10.198C175.639 9.45267 174.807 9.08 173.732 9.08C172.64 9.08 171.791 9.45267 171.184 10.198C170.595 10.926 170.3 11.966 170.3 13.318C170.3 14.6873 170.595 15.7533 171.184 16.516C171.791 17.2787 172.632 17.66 173.706 17.66Z" fill="#19202C"/>
</svg>
