<svg width="830" height="44" viewBox="0 0 830 44" fill="none" xmlns="http://www.w3.org/2000/svg">
<rect opacity="0.3" width="830" height="44" rx="22" fill="#EBEBEB"/>
<path opacity="0.4" d="M28.024 28.128C27.4373 28.128 26.888 28.08 26.376 27.984C25.864 27.8773 25.3893 27.7173 24.952 27.504C24.5147 27.28 24.12 27.008 23.768 26.688L24.264 25.68C24.84 26.16 25.416 26.5013 25.992 26.704C26.5787 26.9067 27.2613 27.008 28.04 27.008C28.9467 27.008 29.6507 26.832 30.152 26.48C30.6533 26.1173 30.904 25.6107 30.904 24.96C30.904 24.5653 30.776 24.2507 30.52 24.016C30.2747 23.7707 29.9333 23.5787 29.496 23.44C29.0693 23.2907 28.584 23.152 28.04 23.024C27.496 22.9067 26.9787 22.7733 26.488 22.624C25.9973 22.464 25.56 22.2667 25.176 22.032C24.8027 21.7973 24.5093 21.4987 24.296 21.136C24.0827 20.7733 23.976 20.32 23.976 19.776C23.976 19.1253 24.1467 18.5547 24.488 18.064C24.8293 17.5627 25.3093 17.1733 25.928 16.896C26.5467 16.6187 27.2773 16.48 28.12 16.48C28.6427 16.48 29.144 16.5387 29.624 16.656C30.104 16.7627 30.5467 16.9227 30.952 17.136C31.368 17.3493 31.736 17.6107 32.056 17.92L31.544 18.928C31.0213 18.4693 30.4827 18.1333 29.928 17.92C29.3733 17.7067 28.7707 17.6 28.12 17.6C27.2347 17.6 26.5413 17.7867 26.04 18.16C25.5387 18.5333 25.288 19.056 25.288 19.728C25.288 20.144 25.4 20.48 25.624 20.736C25.848 20.992 26.1627 21.2 26.568 21.36C26.9733 21.5093 27.4373 21.648 27.96 21.776C28.5147 21.904 29.048 22.0427 29.56 22.192C30.072 22.3413 30.5253 22.528 30.92 22.752C31.3253 22.9653 31.6453 23.248 31.88 23.6C32.1147 23.9413 32.232 24.3787 32.232 24.912C32.232 25.5627 32.0613 26.128 31.72 26.608C31.3787 27.088 30.8933 27.4613 30.264 27.728C29.6347 27.9947 28.888 28.128 28.024 28.128ZM40.8088 27.04C40.4568 27.3707 40.0034 27.632 39.4488 27.824C38.9048 28.016 38.3448 28.112 37.7688 28.112C36.9368 28.112 36.2168 27.9467 35.6088 27.616C35.0114 27.2853 34.5474 26.8107 34.2168 26.192C33.8968 25.5627 33.7368 24.816 33.7368 23.952C33.7368 23.12 33.8968 22.3893 34.2168 21.76C34.5368 21.1307 34.9794 20.64 35.5448 20.288C36.1208 19.936 36.7821 19.76 37.5288 19.76C38.2434 19.76 38.8568 19.92 39.3688 20.24C39.8808 20.5493 40.2701 20.9973 40.5368 21.584C40.8141 22.1707 40.9528 22.8747 40.9528 23.696V23.936H34.8728V23.088H40.2168L39.8008 23.68C39.8221 22.7413 39.6354 22.0213 39.2408 21.52C38.8568 21.0187 38.2914 20.768 37.5448 20.768C36.7661 20.768 36.1528 21.0453 35.7048 21.6C35.2674 22.144 35.0488 22.9013 35.0488 23.872C35.0488 24.9173 35.2781 25.7067 35.7368 26.24C36.2061 26.7733 36.8888 27.04 37.7848 27.04C38.2541 27.04 38.7021 26.9653 39.1288 26.816C39.5661 26.656 39.9821 26.416 40.3768 26.096L40.8088 27.04ZM46.0079 28.112C45.2932 28.112 44.6639 27.9467 44.1199 27.616C43.5865 27.2747 43.1705 26.7947 42.8719 26.176C42.5839 25.5467 42.4399 24.8107 42.4399 23.968C42.4399 23.1253 42.5892 22.3893 42.8879 21.76C43.1865 21.1307 43.6025 20.64 44.1359 20.288C44.6799 19.936 45.3039 19.76 46.0079 19.76C46.7439 19.76 47.3679 19.9413 47.8799 20.304C48.3919 20.6667 48.7385 21.184 48.9199 21.856L48.7279 21.984V19.952H50.0079V28H48.7279V25.92L48.9199 26.016C48.7385 26.688 48.3919 27.2053 47.8799 27.568C47.3679 27.9307 46.7439 28.112 46.0079 28.112ZM46.2639 27.04C47.0532 27.04 47.6612 26.7733 48.0879 26.24C48.5145 25.696 48.7279 24.928 48.7279 23.936C48.7279 22.944 48.5092 22.1813 48.0719 21.648C47.6452 21.1147 47.0425 20.848 46.2639 20.848C45.4745 20.848 44.8559 21.1253 44.4079 21.68C43.9705 22.224 43.7519 22.9867 43.7519 23.968C43.7519 24.9493 43.9705 25.7067 44.4079 26.24C44.8559 26.7733 45.4745 27.04 46.2639 27.04ZM52.5136 28V22.208C52.5136 21.8347 52.503 21.4613 52.4816 21.088C52.471 20.704 52.439 20.3253 52.3856 19.952H53.6176L53.7936 21.936L53.6176 21.888C53.767 21.184 54.087 20.656 54.5776 20.304C55.079 19.9413 55.639 19.76 56.2576 19.76C56.3963 19.76 56.5243 19.7707 56.6416 19.792C56.7696 19.8027 56.887 19.824 56.9936 19.856L56.9616 21.04C56.7163 20.9547 56.4336 20.912 56.1136 20.912C55.559 20.912 55.111 21.0347 54.7696 21.28C54.439 21.5253 54.1936 21.84 54.0336 22.224C53.8843 22.5973 53.8096 22.992 53.8096 23.408V28H52.5136ZM61.5303 28.112C60.7409 28.112 60.0583 27.9413 59.4823 27.6C58.9063 27.2587 58.4583 26.7787 58.1383 26.16C57.8289 25.5413 57.6743 24.8107 57.6743 23.968C57.6743 23.136 57.8343 22.4053 58.1543 21.776C58.4743 21.136 58.9276 20.64 59.5143 20.288C60.1009 19.936 60.7943 19.76 61.5943 19.76C62.1383 19.76 62.6609 19.856 63.1623 20.048C63.6743 20.2293 64.0956 20.4853 64.4263 20.816L63.9943 21.776C63.5996 21.4667 63.2103 21.2373 62.8263 21.088C62.4529 20.928 62.0636 20.848 61.6583 20.848C60.8476 20.848 60.2023 21.12 59.7223 21.664C59.2529 22.208 59.0182 22.976 59.0182 23.968C59.0182 24.9493 59.2529 25.7067 59.7223 26.24C60.1916 26.7733 60.8369 27.04 61.6583 27.04C62.0529 27.04 62.4423 26.9653 62.8263 26.816C63.2103 26.656 63.5996 26.4213 63.9943 26.112L64.4263 27.072C64.0849 27.392 63.6529 27.648 63.1303 27.84C62.6183 28.0213 62.0849 28.112 61.5303 28.112ZM66.0761 28V16.224H67.3721V21.584L67.1641 21.744C67.3881 21.0933 67.7615 20.6027 68.2841 20.272C68.8068 19.9307 69.4095 19.76 70.0921 19.76C72.0228 19.76 72.9881 20.8213 72.9881 22.944V28H71.6921V23.008C71.6921 22.2613 71.5428 21.7173 71.2441 21.376C70.9455 21.024 70.4761 20.848 69.8361 20.848C69.0895 20.848 68.4921 21.0773 68.0441 21.536C67.5961 21.9947 67.3721 22.6133 67.3721 23.392V28H66.0761Z" fill="#30384C"/>
<path fill-rule="evenodd" clip-rule="evenodd" d="M811.901 29.4865L808.321 25.9065L808.32 25.9055C810.909 22.569 810.459 17.7939 807.292 15.0001C804.124 12.2063 799.33 12.3565 796.343 15.3432C793.357 18.3298 793.206 23.1238 796 26.2916C798.794 29.4594 803.569 29.9095 806.906 27.3195L810.486 30.8995C810.736 31.1596 811.108 31.2642 811.458 31.1729C811.808 31.0816 812.081 30.8088 812.173 30.4592C812.264 30.1097 812.16 29.7378 811.901 29.4865ZM807.197 24.0005C806.125 25.8569 804.144 27.0005 802.001 27.0005C798.687 27.0005 796.001 24.3142 796.001 21.0005C796.001 17.6868 798.687 15.0005 802.001 15.0005C804.144 15.0005 806.125 16.1441 807.197 18.0005C808.268 19.8569 808.268 22.1441 807.197 24.0005Z" fill="black"/>
</svg>
